<svg viewBox="-1376 -658.5 2752 1317" width="2752" height="1317" style="background-color: rgb(255, 255, 255);" xmlns="http://www.w3.org/2000/svg"><path d="M-169.74851887971715,119.2161610859279L-179.41456864105263,118.92092419863668M-179.41456864105263,-161.05616480898368L-179.41456864105263,118.92092419863668M-179.41456864105263,118.92092419863668L-257.093442409033,147.7235967339061M-169.74851887971715,-160.76092792169248L-169.74851887971715,119.2161610859279M-169.74851887971715,119.2161610859279L-247.42739264769753,148.0188336211973" style="fill:none;stroke:rgb(0,0,0);stroke-width:1;stroke-linecap:round"></path><path d="M-169.74851887971715,119.21616108592787L-179.41456864105263,118.92092419863668L-179.41456864105263,-161.05616480898368zM-169.74851887971715,-160.7609279216925L-169.74851887971715,119.21616108592787L-179.41456864105263,-161.05616480898368z" style="fill:rgb(238,238,238); fill-opacity: 0.4"></path><path d="M-169.74851887971715,-160.76092792169248L-179.41456864105263,-161.05616480898368M-179.41456864105263,-161.05616480898368L-257.093442409033,-132.25349227371427M-169.74851887971715,-160.76092792169248L-247.42739264769753,-131.95825538642308M41.613682403319494,134.55772311103146L21.513696930422583,133.94379526127497M21.513696930422583,-166.0316572468897L21.513696930422583,133.94379526127497M21.513696930422583,133.94379526127497L-61.71366782098498,164.80380154906362M41.613682403319494,-165.4177293971332L41.613682403319494,134.55772311103146M41.613682403319494,134.55772311103146L-41.61368234808807,165.41772939882011M-178.91099166795678,-109.23755007666654L-188.57704142929228,-109.53278696395772M-188.57704142929228,-119.53196871422988L-188.57704142929228,-109.53278696395772M-188.57704142929228,-109.53278696395772L-191.35128692100585,-108.5041200876981M-178.91099166795678,-119.2367318269387L-188.57704142929228,-119.53196871422988M-188.57704142929228,-119.53196871422988L-191.35128692100585,-118.50330183797026" style="fill:none;stroke:rgb(0,0,0);stroke-width:1;stroke-linecap:round"></path><path d="M-178.91099166795678,-109.23755007666654L-188.57704142929228,-109.53278696395772L-188.57704142929228,-119.53196871422988z" style="fill:rgb(153,221,255); fill-opacity: 0.4"></path><path d="M41.613682403319494,134.55772311103146L21.513696930422583,133.94379526127497L21.513696930422583,-166.0316572468897z" style="fill:rgb(238,238,238); fill-opacity: 0.4"></path><path d="M-178.91099166795678,-119.2367318269387L-178.91099166795678,-109.23755007666654L-188.57704142929228,-119.53196871422988z" style="fill:rgb(153,221,255); fill-opacity: 0.4"></path><path d="M-178.91099166795678,-119.2367318269387L-178.91099166795678,-109.23755007666654M-178.91099166795678,-109.23755007666654L-181.68523715967035,-108.20888320040692M-178.91099166795678,-119.2367318269387L-181.68523715967035,-118.20806495067907" style="fill:none;stroke:rgb(0,0,0);stroke-width:1;stroke-linecap:round"></path><path d="M-188.57704142929228,-119.53196871422988L-188.57704142929228,-109.53278696395772L-191.35128692100585,-118.50330183797026zM-191.35128692100585,-108.5041200876981L-188.57704142929228,-109.53278696395772L-178.91099166795678,-109.23755007666654zM-181.68523715967035,-118.20806495067907L-178.91099166795678,-119.2367318269387L-188.57704142929228,-119.53196871422988zM-181.68523715967035,-108.20888320040692L-178.91099166795678,-109.23755007666654L-178.91099166795678,-119.2367318269387z" style="fill:rgb(153,221,255); fill-opacity: 0.4"></path><path d="M-185.13113929448133,-113.8704259573184L-185.13113929448133,-113.8704259573184L-185.13113929448133,-113.8704259573184zM-185.13113929448133,-113.8704259573184L-185.13113929448133,-113.8704259573184L-185.13113929448133,-113.8704259573184z" style="fill:rgb(255,187,187); fill-opacity: 0.4"></path><path d="M-188.57704142929228,-109.53278696395772L-191.35128692100585,-108.5041200876981L-191.35128692100585,-118.50330183797026zM-181.68523715967035,-108.20888320040692L-191.35128692100585,-108.5041200876981L-178.91099166795678,-109.23755007666654zM-191.35128692100585,-118.50330183797026L-181.68523715967035,-118.20806495067907L-188.57704142929228,-119.53196871422988z" style="fill:rgb(153,221,255); fill-opacity: 0.4"></path><path d="M-191.35128692100585,-118.50330183797026L-191.35128692100585,-108.5041200876981M-191.35128692100585,-108.5041200876981L-181.68523715967035,-108.20888320040692" style="fill:none;stroke:rgb(0,0,0);stroke-width:1;stroke-linecap:round"></path><path d="M-181.68523715967035,-118.20806495067907L-181.68523715967035,-108.20888320040692L-178.91099166795678,-119.2367318269387z" style="fill:rgb(153,221,255); fill-opacity: 0.4"></path><path d="M-191.35128692100585,-118.50330183797026L-181.68523715967035,-118.20806495067907" style="fill:none;stroke:rgb(0,0,0);stroke-width:1;stroke-linecap:round"></path><path d="M-191.35128692100585,-118.50330183797026L-191.35128692100585,-108.5041200876981L-181.68523715967035,-118.20806495067907zM-191.35128692100585,-108.5041200876981L-181.68523715967035,-108.20888320040692L-181.68523715967035,-118.20806495067907z" style="fill:rgb(153,221,255); fill-opacity: 0.4"></path><path d="M-181.68523715967035,-118.20806495067907L-181.68523715967035,-108.20888320040692" style="fill:none;stroke:rgb(0,0,0);stroke-width:1;stroke-linecap:round"></path><path d="M41.613682403319494,-165.4177293971332L41.613682403319494,134.55772311103146L21.513696930422583,-166.0316572468897z" style="fill:rgb(238,238,238); fill-opacity: 0.4"></path><path d="M41.613682403319494,-165.4177293971332L21.513696930422583,-166.0316572468897M21.513696930422583,-166.0316572468897L-61.71366782098498,-135.17165095910104" style="fill:none;stroke:rgb(0,0,0);stroke-width:1;stroke-linecap:round"></path><path d="M-185.13113929448133,-113.8704259573184L-185.13113929448133,-113.8704259573184L10.210558885792143,-115.63367109459658zM-185.13113929448133,-113.8704259573184L-185.13113929448133,-113.8704259573184L10.210558885792143,-115.63367109459658zM-185.13113929448133,-113.8704259573184L-185.13113929448133,-113.8704259573184L10.210558885792143,-115.63367109459658zM-185.13113929448133,-113.8704259573184L-185.13113929448133,-113.8704259573184L10.210558885792143,-115.63367109459658z" style="fill:rgb(255,187,187); fill-opacity: 0.4"></path><path d="M41.613682403319494,-165.4177293971332L-41.61368234808807,-134.55772310934458" style="fill:none;stroke:rgb(0,0,0);stroke-width:1;stroke-linecap:round"></path><path d="M-257.093442409033,147.7235967339061L-179.41456864105263,118.92092419863668L-169.74851887971715,119.21616108592787zM-247.42739264769753,148.0188336211973L-169.74851887971715,119.21616108592787L-169.74851887971715,-160.7609279216925zM-179.41456864105263,-161.05616480898368L-179.41456864105263,118.92092419863668L-257.093442409033,-132.25349227371427z" style="fill:rgb(238,238,238); fill-opacity: 0.4"></path><path d="M252.26041755598095,132.1058738309121L232.16043208308403,131.4919459811556M232.16043208308403,-148.48514302646478L232.16043208308403,131.4919459811556M232.16043208308403,131.4919459811556L154.48155831510363,160.294618516425" style="fill:none;stroke:rgb(0,0,0);stroke-width:1;stroke-linecap:round"></path><path d="M-247.42739264769753,-131.95825538642308L-169.74851887971715,-160.7609279216925L-179.41456864105263,-161.05616480898368z" style="fill:rgb(238,238,238); fill-opacity: 0.4"></path><path d="M252.26041755598095,-147.8712151767083L252.26041755598095,132.1058738309121M252.26041755598095,132.1058738309121L174.58154378800057,160.9085463661815" style="fill:none;stroke:rgb(0,0,0);stroke-width:1;stroke-linecap:round"></path><path d="M252.26041755598095,132.1058738309121L232.16043208308403,131.49194598115557L232.16043208308403,-148.4851430264648zM252.26041755598095,-147.8712151767083L252.26041755598095,132.1058738309121L232.16043208308403,-148.4851430264648zM-61.71366782098497,164.80380154906362L21.513696930422583,133.94379526127497L41.613682403319494,134.55772311103146z" style="fill:rgb(238,238,238); fill-opacity: 0.4"></path><path d="M16.028893361528656,37.603877578658825L-4.071092111368253,36.989949728902324M-4.071092111368253,6.992404478085852L-4.071092111368253,36.989949728902324M-4.071092111368253,36.989949728902324L-12.39382858650901,40.07595035768119M252.26041755598095,-147.8712151767083L232.16043208308403,-148.48514302646478M232.16043208308403,-148.48514302646478L154.48155831510363,-119.68247049119536" style="fill:none;stroke:rgb(0,0,0);stroke-width:1;stroke-linecap:round"></path><path d="M16.028893361528652,37.603877578658825L-4.0710921113682526,36.98994972890232L-4.0710921113682526,6.9924044780858505z" style="fill:rgb(153,221,255); fill-opacity: 0.4"></path><path d="M16.028893361528656,7.606332327842356L-4.071092111368253,6.992404478085852M-4.071092111368253,6.992404478085852L-12.39382858650901,10.078405106864718M16.028893361528656,7.606332327842356L16.028893361528656,37.603877578658825M16.028893361528656,37.603877578658825L7.7061568863879,40.689878207437694M16.02889296348977,7.606332966655072L16.02889296348977,37.60387821747155M16.02889296348977,37.60387821747155L7.706157149780683,40.68987860099712M16.02889296348977,37.60387821747155L204.39735176985405,28.442969399330707" style="fill:none;stroke:rgb(0,0,0);stroke-width:1;stroke-linecap:round"></path><path d="M16.028893361528652,7.606332327842353L16.028893361528652,37.603877578658825L-4.0710921113682526,6.9924044780858505z" style="fill:rgb(153,221,255); fill-opacity: 0.4"></path><path d="M252.26041755598095,-147.8712151767083L174.58154378800057,-119.06854264143888M16.028893361528656,7.606332327842356L7.7061568863879,10.692332956621222M16.02889296348977,7.606332966655072L7.706157149780682,10.692333350180643M16.02889296348977,7.606332966655072L204.39735176985405,28.442969399330707" style="fill:none;stroke:rgb(0,0,0);stroke-width:1;stroke-linecap:round"></path><path d="M-12.39382858650901,40.07595035768119L-4.0710921113682526,36.98994972890232L16.028893361528652,37.603877578658825zM-4.0710921113682526,6.9924044780858505L-4.0710921113682526,36.98994972890232L-12.39382858650901,10.078405106864716z" style="fill:rgb(153,221,255); fill-opacity: 0.4"></path><path d="M-41.61368234808807,165.41772939882011L41.613682403319494,134.55772311103146L41.613682403319494,-165.4177293971332z" style="fill:rgb(238,238,238); fill-opacity: 0.4"></path><path d="M16.02889333391293,7.606332326998866L16.02889333391293,37.60387757781534L7.706156858772175,40.68987820659421z" style="fill:rgb(255,187,187); fill-opacity: 0.4"></path><path d="M7.706156886387901,40.689878207437694L16.028893361528652,37.603877578658825L16.028893361528652,7.606332327842353zM7.7061568863879,10.692332956621216L16.028893361528652,7.606332327842353L-4.0710921113682526,6.9924044780858505z" style="fill:rgb(153,221,255); fill-opacity: 0.4"></path><path d="M21.513696930422583,-166.0316572468897L21.513696930422583,133.94379526127497L-61.71366782098497,-135.17165095910107z" style="fill:rgb(238,238,238); fill-opacity: 0.4"></path><path d="M-4.0710921113682526,36.98994972890232L-12.39382858650901,40.07595035768119L-12.39382858650901,10.078405106864716zM7.706156886387901,40.689878207437694L-12.39382858650901,40.07595035768119L16.028893361528652,37.603877578658825zM-12.39382858650901,10.078405106864716L7.7061568863879,10.692332956621216L-4.0710921113682526,6.9924044780858505z" style="fill:rgb(153,221,255); fill-opacity: 0.4"></path><path d="M16.02889333391293,7.606332326998866L7.706156858772175,40.68987820659421L7.706156858772174,10.692332955777731z" style="fill:rgb(255,187,187); fill-opacity: 0.4"></path><path d="M7.7061568863879,10.692332956621216L7.706156886387901,40.689878207437694L16.028893361528652,7.606332327842353z" style="fill:rgb(153,221,255); fill-opacity: 0.4"></path><path d="M-12.39382858650901,10.078405106864718L-12.39382858650901,40.07595035768119M-12.39382858650901,40.07595035768119L7.7061568863879,40.689878207437694" style="fill:none;stroke:rgb(0,0,0);stroke-width:1;stroke-linecap:round"></path><path d="M16.02889333391293,37.60387757781534L16.02889333391293,7.606332326998866L204.39735198329598,28.442969328167052z" style="fill:rgb(255,187,187); fill-opacity: 0.4"></path><path d="M-41.61368234808807,-134.55772310934458L41.613682403319494,-165.4177293971332L21.513696930422583,-166.0316572468897z" style="fill:rgb(238,238,238); fill-opacity: 0.4"></path><path d="M-12.39382858650901,10.078405106864718L7.7061568863879,10.692332956621222" style="fill:none;stroke:rgb(0,0,0);stroke-width:1;stroke-linecap:round"></path><path d="M-12.39382858650901,10.078405106864716L-12.39382858650901,40.07595035768119L7.7061568863879,10.692332956621216zM-12.39382858650901,40.07595035768119L7.706156886387901,40.689878207437694L7.7061568863879,10.692332956621216z" style="fill:rgb(153,221,255); fill-opacity: 0.4"></path><path d="M7.706157149780683,40.68987860099712L7.706157149780682,10.692333350180643M7.706157149780683,40.68987860099712L204.39735176985405,28.442969399330707M7.7061568863879,10.692332956621222L7.7061568863879,40.689878207437694" style="fill:none;stroke:rgb(0,0,0);stroke-width:1;stroke-linecap:round"></path><path d="M-247.42739264769753,148.0188336211973L-257.093442409033,147.7235967339061L-169.74851887971715,119.21616108592787z" style="fill:rgb(238,238,238); fill-opacity: 0.4"></path><path d="M7.706157149780682,10.692333350180643L204.39735176985405,28.442969399330707" style="fill:none;stroke:rgb(0,0,0);stroke-width:1;stroke-linecap:round"></path><path d="M7.706156858772175,40.68987820659421L16.02889333391293,37.60387757781534L204.39735198329598,28.442969328167052zM16.02889333391293,7.606332326998866L7.706156858772174,10.692332955777731L204.39735198329598,28.442969328167052z" style="fill:rgb(255,187,187); fill-opacity: 0.4"></path><path d="M-179.41456864105263,118.92092419863668L-257.093442409033,147.7235967339061L-257.093442409033,-132.25349227371427z" style="fill:rgb(238,238,238); fill-opacity: 0.4"></path><path d="M7.706156858772174,10.692332955777731L7.706156858772175,40.68987820659421L204.39735198329598,28.442969328167052z" style="fill:rgb(255,187,187); fill-opacity: 0.4"></path><path d="M-247.42739264769753,-131.95825538642308L-247.42739264769753,148.0188336211973L-169.74851887971715,-160.7609279216925zM154.48155831510363,160.294618516425L232.16043208308403,131.49194598115557L252.26041755598095,132.1058738309121zM-257.093442409033,-132.25349227371427L-247.42739264769753,-131.95825538642308L-179.41456864105263,-161.05616480898368zM174.58154378800057,160.9085463661815L252.26041755598095,132.1058738309121L252.26041755598095,-147.8712151767083zM232.16043208308403,-148.4851430264648L232.16043208308403,131.49194598115557L154.48155831510363,-119.68247049119537zM174.58154378800057,-119.06854264143888L252.26041755598095,-147.8712151767083L232.16043208308403,-148.4851430264648zM-41.61368234808807,165.41772939882011L-61.71366782098497,164.80380154906362L41.613682403319494,134.55772311103146zM21.513696930422583,133.94379526127497L-61.71366782098497,164.80380154906362L-61.71366782098497,-135.17165095910107z" style="fill:rgb(238,238,238); fill-opacity: 0.4"></path><path d="M446.2616797583609,75.83093530671749L426.16169428546397,75.217007456961M426.16169428546397,-64.77153704684919L426.16169428546397,75.217007456961M426.16169428546397,75.217007456961L387.32225740147373,89.61834372459572M446.2616797583609,-64.1576091970927L446.2616797583609,75.83093530671749M446.2616797583609,75.83093530671749L407.4222428743707,90.23227157435221" style="fill:none;stroke:rgb(0,0,0);stroke-width:1;stroke-linecap:round"></path><path d="M446.2616797583609,75.83093530671749L426.16169428546397,75.217007456961L426.16169428546397,-64.77153704684919zM-41.61368234808807,-134.55772310934458L-41.61368234808807,165.41772939882011L41.613682403319494,-165.4177293971332zM446.2616797583609,-64.1576091970927L446.2616797583609,75.83093530671749L426.16169428546397,-64.77153704684919z" style="fill:rgb(238,238,238); fill-opacity: 0.4"></path><path d="M446.2616797583609,-64.1576091970927L426.16169428546397,-64.77153704684919M426.16169428546397,-64.77153704684919L387.32225740147373,-50.370200779214485M-257.093442409033,-132.25349227371427L-257.093442409033,147.7235967339061M-257.093442409033,147.7235967339061L-247.42739264769753,148.0188336211973M-247.42739264769753,-131.95825538642308L-247.42739264769753,148.0188336211973" style="fill:none;stroke:rgb(0,0,0);stroke-width:1;stroke-linecap:round"></path><path d="M-61.71366782098497,-135.17165095910107L-41.61368234808807,-134.55772310934458L21.513696930422583,-166.0316572468897z" style="fill:rgb(238,238,238); fill-opacity: 0.4"></path><path d="M446.2616797583609,-64.1576091970927L407.4222428743707,-49.75627292945798" style="fill:none;stroke:rgb(0,0,0);stroke-width:1;stroke-linecap:round"></path><path d="M-257.093442409033,147.7235967339061L-247.42739264769753,148.0188336211973L-247.42739264769753,-131.95825538642308zM-257.093442409033,-132.25349227371427L-257.093442409033,147.7235967339061L-247.42739264769753,-131.95825538642308z" style="fill:rgb(238,238,238); fill-opacity: 0.4"></path><path d="M-257.093442409033,-132.25349227371427L-247.42739264769753,-131.95825538642308" style="fill:none;stroke:rgb(0,0,0);stroke-width:1;stroke-linecap:round"></path><path d="M387.32225740147373,89.61834372459569L426.16169428546397,75.217007456961L446.2616797583609,75.83093530671749zM174.58154378800057,160.9085463661815L154.48155831510363,160.294618516425L252.26041755598095,132.1058738309121zM232.16043208308403,131.49194598115557L154.48155831510363,160.294618516425L154.48155831510363,-119.68247049119537zM426.16169428546397,-64.77153704684919L426.16169428546397,75.217007456961L387.32225740147373,-50.37020077921447zM407.4222428743707,90.2322715743522L446.2616797583609,75.83093530671749L446.2616797583609,-64.1576091970927zM407.4222428743707,-49.75627292945798L446.2616797583609,-64.1576091970927L426.16169428546397,-64.77153704684919zM174.58154378800057,-119.06854264143888L174.58154378800057,160.9085463661815L252.26041755598095,-147.8712151767083z" style="fill:rgb(238,238,238); fill-opacity: 0.4"></path><path d="M194.43449321281076,93.89016838205302L174.33450773991387,93.27624053229651M174.33450773991387,73.2778770317522L174.33450773991387,93.27624053229651M174.33450773991387,93.27624053229651L168.7860167564867,95.33357428481577M194.43449321281076,73.8918048815087L174.33450773991387,73.2778770317522M174.33450773991387,73.2778770317522L168.7860167564867,75.33521078427145" style="fill:none;stroke:rgb(0,0,0);stroke-width:1;stroke-linecap:round"></path><path d="M194.4344932128108,93.89016838205303L174.33450773991387,93.27624053229654L174.33450773991387,73.27787703175221z" style="fill:rgb(153,221,255); fill-opacity: 0.4"></path><path d="M154.48155831510363,-119.68247049119537L174.58154378800057,-119.06854264143888L232.16043208308403,-148.4851430264648z" style="fill:rgb(238,238,238); fill-opacity: 0.4"></path><path d="M194.4344932128108,73.89180488150872L194.4344932128108,93.89016838205303L174.33450773991387,73.27787703175221z" style="fill:rgb(153,221,255); fill-opacity: 0.4"></path><path d="M194.4344887768427,73.89180690864568L194.4344887768427,93.89017040918996M194.4344887768427,93.89017040918996L188.88599647055221,95.94750465221581M194.4344887768427,93.89017040918996L395.86160491451153,51.623898240812444M194.43449321281076,73.8918048815087L194.43449321281076,93.89016838205302M194.43449321281076,93.89016838205302L188.8860022293836,95.94750213457228" style="fill:none;stroke:rgb(0,0,0);stroke-width:1;stroke-linecap:round"></path><path d="M174.33450773991387,73.27787703175221L174.33450773991387,93.27624053229654L168.7860167564867,75.33521078427145z" style="fill:rgb(153,221,255); fill-opacity: 0.4"></path><path d="M194.4344887768427,73.89180690864568L188.88599647055221,75.94914115167151M194.4344887768427,73.89180690864568L395.86160491451153,51.623898240812444M194.43449321281076,73.8918048815087L188.8860022293836,75.94913863402796" style="fill:none;stroke:rgb(0,0,0);stroke-width:1;stroke-linecap:round"></path><path d="M168.7860167564867,95.33357428481577L174.33450773991387,93.27624053229654L194.4344932128108,93.89016838205303z" style="fill:rgb(153,221,255); fill-opacity: 0.4"></path><path d="M-61.71366782098498,-135.17165095910104L-61.71366782098498,164.80380154906362M-61.71366782098498,164.80380154906362L-41.61368234808807,165.41772939882011" style="fill:none;stroke:rgb(0,0,0);stroke-width:1;stroke-linecap:round"></path><path d="M188.88600222938362,75.94913863402796L194.4344932128108,73.89180488150872L174.33450773991387,73.27787703175221z" style="fill:rgb(153,221,255); fill-opacity: 0.4"></path><path d="M194.43449318519504,73.89180488066523L194.43449318519504,93.89016838120955L188.88600220176787,95.94750213372879z" style="fill:rgb(255,187,187); fill-opacity: 0.4"></path><path d="M188.88600222938362,95.94750213457228L194.4344932128108,93.89016838205303L194.4344932128108,73.89180488150872zM174.33450773991387,93.27624053229654L168.7860167564867,95.33357428481577L168.7860167564867,75.33521078427145z" style="fill:rgb(153,221,255); fill-opacity: 0.4"></path><path d="M446.17406081142104,13.627804962368637L555.7226247732232,16.973823018335384M-41.61368234808807,-134.55772310934458L-41.61368234808807,165.41772939882011" style="fill:none;stroke:rgb(0,0,0);stroke-width:1;stroke-linecap:round"></path><path d="M188.88600222938362,95.94750213457228L168.7860167564867,95.33357428481577L194.4344932128108,93.89016838205303zM168.7860167564867,75.33521078427145L188.88600222938362,75.94913863402796L174.33450773991387,73.27787703175221z" style="fill:rgb(153,221,255); fill-opacity: 0.4"></path><path d="M194.43449318519504,93.89016838120955L194.43449318519504,73.89180488066523L395.8616093956378,51.62389729636869z" style="fill:rgb(255,187,187); fill-opacity: 0.4"></path><path d="M168.7860167564867,75.33521078427145L168.7860167564867,95.33357428481577M168.7860167564867,95.33357428481577L188.8860022293836,95.94750213457228" style="fill:none;stroke:rgb(0,0,0);stroke-width:1;stroke-linecap:round"></path><path d="M194.43449318519504,73.89180488066523L188.88600220176787,95.94750213372879L188.88600220176787,75.94913863318448z" style="fill:rgb(255,187,187); fill-opacity: 0.4"></path><path d="M188.88600222938362,75.94913863402796L188.88600222938362,95.94750213457228L194.4344932128108,73.89180488150872z" style="fill:rgb(153,221,255); fill-opacity: 0.4"></path><path d="M168.7860167564867,75.33521078427145L188.8860022293836,75.94913863402796" style="fill:none;stroke:rgb(0,0,0);stroke-width:1;stroke-linecap:round"></path><path d="M407.4222428743707,90.2322715743522L387.32225740147373,89.61834372459569L446.2616797583609,75.83093530671749z" style="fill:rgb(238,238,238); fill-opacity: 0.4"></path><path d="M168.7860167564867,75.33521078427145L168.7860167564867,95.33357428481577L188.88600222938362,75.94913863402796z" style="fill:rgb(153,221,255); fill-opacity: 0.4"></path><path d="M188.88600220176787,95.94750213372879L194.43449318519504,93.89016838120955L395.8616093956378,51.62389729636869z" style="fill:rgb(255,187,187); fill-opacity: 0.4"></path><path d="M426.16169428546397,75.217007456961L387.32225740147373,89.61834372459569L387.32225740147373,-50.37020077921447z" style="fill:rgb(238,238,238); fill-opacity: 0.4"></path><path d="M168.7860167564867,95.33357428481577L188.88600222938362,95.94750213457228L188.88600222938362,75.94913863402796z" style="fill:rgb(153,221,255); fill-opacity: 0.4"></path><path d="M194.43449318519504,73.89180488066523L188.88600220176787,75.94913863318448L395.8616093956378,51.62389729636869z" style="fill:rgb(255,187,187); fill-opacity: 0.4"></path><path d="M-61.71366782098497,164.80380154906362L-41.61368234808807,165.41772939882011L-41.61368234808807,-134.55772310934458z" style="fill:rgb(238,238,238); fill-opacity: 0.4"></path><path d="M188.8860022293836,75.94913863402796L188.8860022293836,95.94750213457228M188.88599647055221,95.94750465221581L188.88599647055221,75.94914115167151M188.88599647055221,95.94750465221581L395.86160491451153,51.623898240812444M188.88599647055221,75.94914115167151L395.86160491451153,51.623898240812444" style="fill:none;stroke:rgb(0,0,0);stroke-width:1;stroke-linecap:round"></path><path d="M188.88600220176787,75.94913863318448L188.88600220176787,95.94750213372879L395.8616093956378,51.62389729636869z" style="fill:rgb(255,187,187); fill-opacity: 0.4"></path><path d="M-61.71366782098497,-135.17165095910107L-61.71366782098497,164.80380154906362L-41.61368234808807,-134.55772310934458zM407.4222428743707,-49.75627292945798L407.4222428743707,90.2322715743522L446.2616797583609,-64.1576091970927zM387.32225740147373,-50.37020077921447L407.4222428743707,-49.75627292945798L426.16169428546397,-64.77153704684919z" style="fill:rgb(238,238,238); fill-opacity: 0.4"></path><path d="M-61.71366782098498,-135.17165095910104L-41.61368234808807,-134.55772310934458" style="fill:none;stroke:rgb(0,0,0);stroke-width:1;stroke-linecap:round"></path><path d="M559.799276181297,-4.761535128484599L551.6459733651492,-1.7383590742612278L620.1629565154597,18.94206893360994z" style="fill:rgb(0,0,0)"></path><path d="M651.9353512911797,55.583884275379226L632.6032517685087,54.99341050079687M632.6032517685087,-18.576132611513945L632.6032517685087,54.99341050079687M632.6032517685087,54.99341050079687L627.0547607850815,57.050744253316104" style="fill:none;stroke:rgb(0,0,0);stroke-width:1;stroke-linecap:round"></path><path d="M651.9353512911797,55.58388427537923L632.6032517685088,54.99341050079688L632.6032517685088,-18.576132611513945z" style="fill:rgb(238,238,238); fill-opacity: 0.4"></path><path d="M549.1264639769881,27.144416850605474L555.7226247732231,41.97177739401579L620.1629565154597,18.94206893360994z" style="fill:rgb(0,0,0)"></path><path d="M651.9353512911797,-17.985658836931584L651.9353512911797,55.583884275379226M651.9353512911797,55.583884275379226L646.3868603077525,57.64121802789847M651.9353512911797,-17.985658836931584L632.6032517685087,-18.576132611513945M632.6032517685087,-18.576132611513945L627.0547607850815,-16.518798858994703" style="fill:none;stroke:rgb(0,0,0);stroke-width:1;stroke-linecap:round"></path><path d="M627.0547607850816,57.050744253316104L632.6032517685088,54.99341050079688L651.9353512911797,55.58388427537923z" style="fill:rgb(238,238,238); fill-opacity: 0.4"></path><path d="M154.48155831510363,-119.68247049119536L154.48155831510363,160.294618516425M154.48155831510363,160.294618516425L174.58154378800057,160.9085463661815" style="fill:none;stroke:rgb(0,0,0);stroke-width:1;stroke-linecap:round"></path><path d="M651.9353512911797,-17.985658836931584L651.9353512911797,55.58388427537923L632.6032517685088,-18.576132611513945z" style="fill:rgb(238,238,238); fill-opacity: 0.4"></path><path d="M387.32225740147373,-50.370200779214485L387.32225740147373,89.61834372459572M387.32225740147373,89.61834372459572L407.4222428743707,90.23227157435221" style="fill:none;stroke:rgb(0,0,0);stroke-width:1;stroke-linecap:round"></path><path d="M551.6459733651492,-1.7383590742612278L549.1264639769881,27.144416850605474L620.1629565154597,18.94206893360994z" style="fill:rgb(0,0,0)"></path><path d="M632.6032517685088,-18.576132611513945L632.6032517685088,54.99341050079688L627.0547607850816,-16.518798858994703z" style="fill:rgb(238,238,238); fill-opacity: 0.4"></path><path d="M651.9353512911797,-17.985658836931584L646.3868603077525,-15.928325084412345M174.58154378800057,-119.06854264143888L174.58154378800057,160.9085463661815" style="fill:none;stroke:rgb(0,0,0);stroke-width:1;stroke-linecap:round"></path><path d="M646.3868603077525,57.641218027898475L651.9353512911797,55.58388427537923L651.9353512911797,-17.985658836931584z" style="fill:rgb(238,238,238); fill-opacity: 0.4"></path><path d="M407.4222428743707,-49.75627292945798L407.4222428743707,90.23227157435221" style="fill:none;stroke:rgb(0,0,0);stroke-width:1;stroke-linecap:round"></path><path d="M632.6032517685088,54.99341050079688L627.0547607850816,57.050744253316104L627.0547607850816,-16.518798858994703zM646.3868603077525,57.641218027898475L627.0547607850816,57.050744253316104L651.9353512911797,55.58388427537923zM646.3868603077525,-15.928325084412343L651.9353512911797,-17.985658836931584L632.6032517685088,-18.576132611513945zM387.32225740147373,89.61834372459569L407.4222428743707,90.2322715743522L407.4222428743707,-49.75627292945798z" style="fill:rgb(238,238,238); fill-opacity: 0.4"></path><path d="M627.0547607850815,-16.518798858994703L627.0547607850815,57.050744253316104M627.0547607850815,57.050744253316104L646.3868603077525,57.64121802789847" style="fill:none;stroke:rgb(0,0,0);stroke-width:1;stroke-linecap:round"></path><path d="M387.32225740147373,-50.37020077921447L387.32225740147373,89.61834372459569L407.4222428743707,-49.75627292945798z" style="fill:rgb(238,238,238); fill-opacity: 0.4"></path><path d="M658.8271555608015,20.123016482774624L768.3757195226036,23.46903453874137" style="fill:none;stroke:rgb(0,0,0);stroke-width:1;stroke-linecap:round"></path><path d="M154.48155831510363,160.294618516425L174.58154378800057,160.9085463661815L174.58154378800057,-119.06854264143888zM627.0547607850816,-16.518798858994703L646.3868603077525,-15.928325084412343L632.6032517685088,-18.576132611513945zM646.3868603077525,-15.928325084412343L646.3868603077525,57.641218027898475L651.9353512911797,-17.985658836931584z" style="fill:rgb(238,238,238); fill-opacity: 0.4"></path><path d="M387.32225740147373,-50.370200779214485L407.4222428743707,-49.75627292945798M646.3868603077525,-15.928325084412345L646.3868603077525,57.64121802789847" style="fill:none;stroke:rgb(0,0,0);stroke-width:1;stroke-linecap:round"></path><path d="M627.0547607850816,57.050744253316104L646.3868603077525,57.641218027898475L646.3868603077525,-15.928325084412343zM627.0547607850816,-16.518798858994703L627.0547607850816,57.050744253316104L646.3868603077525,-15.928325084412343z" style="fill:rgb(238,238,238); fill-opacity: 0.4"></path><path d="M627.0547607850815,-16.518798858994703L646.3868603077525,-15.928325084412345" style="fill:none;stroke:rgb(0,0,0);stroke-width:1;stroke-linecap:round"></path><path d="M154.48155831510363,-119.68247049119537L154.48155831510363,160.294618516425L174.58154378800057,-119.06854264143888z" style="fill:rgb(238,238,238); fill-opacity: 0.4"></path><path d="M154.48155831510363,-119.68247049119536L174.58154378800057,-119.06854264143888" style="fill:none;stroke:rgb(0,0,0);stroke-width:1;stroke-linecap:round"></path><path d="M772.4523709306776,1.733676391921388L764.2990681145296,4.756852446144759L832.8160512648403,25.437280454015923z" style="fill:rgb(0,0,0)"></path><path d="M864.5884460405603,36.8063078196513L845.2563465178894,36.21583404506894M845.2563465178894,13.191866885025952L845.2563465178894,36.21583404506894M845.2563465178894,36.21583404506894L839.7078555344622,38.27316779758818" style="fill:none;stroke:rgb(0,0,0);stroke-width:1;stroke-linecap:round"></path><path d="M761.7795587263687,33.63962837101146L768.3757195226036,48.46698891442176L832.8160512648403,25.437280454015923z" style="fill:rgb(0,0,0)"></path><path d="M864.5884460405603,13.782340659608316L845.2563465178894,13.191866885025952M845.2563465178894,13.191866885025952L839.7078555344622,15.249200637545197" style="fill:none;stroke:rgb(0,0,0);stroke-width:1;stroke-linecap:round"></path><path d="M864.5884460405603,36.806307819651295L845.2563465178894,36.21583404506894L845.2563465178894,13.191866885025954zM864.5884460405603,13.782340659608314L864.5884460405603,36.806307819651295L845.2563465178894,13.191866885025954z" style="fill:rgb(238,238,238); fill-opacity: 0.4"></path><path d="M864.5884460405603,13.782340659608316L864.5884460405603,36.8063078196513M864.5884460405603,36.8063078196513L859.0399550571332,38.86364157217054M864.5884460405603,13.782340659608316L859.0399550571332,15.83967441212756" style="fill:none;stroke:rgb(0,0,0);stroke-width:1;stroke-linecap:round"></path><path d="M845.2563465178894,13.191866885025954L845.2563465178894,36.21583404506894L839.707855534462,15.249200637545199zM839.707855534462,38.27316779758818L845.2563465178894,36.21583404506894L864.5884460405603,36.806307819651295z" style="fill:rgb(238,238,238); fill-opacity: 0.4"></path><path d="M764.2990681145296,4.756852446144759L761.7795587263687,33.63962837101146L832.8160512648403,25.437280454015923z" style="fill:rgb(0,0,0)"></path><path d="M859.039955057133,15.83967441212756L864.5884460405603,13.782340659608314L845.2563465178894,13.191866885025954zM859.039955057133,38.86364157217054L864.5884460405603,36.806307819651295L864.5884460405603,13.782340659608314zM845.2563465178894,36.21583404506894L839.707855534462,38.27316779758818L839.707855534462,15.249200637545199zM859.039955057133,38.86364157217054L839.707855534462,38.27316779758818L864.5884460405603,36.806307819651295zM839.707855534462,15.249200637545199L859.039955057133,15.83967441212756L845.2563465178894,13.191866885025954z" style="fill:rgb(238,238,238); fill-opacity: 0.4"></path><path d="M839.7078555344622,15.249200637545197L839.7078555344622,38.27316779758818M839.7078555344622,38.27316779758818L859.0399550571332,38.86364157217054" style="fill:none;stroke:rgb(0,0,0);stroke-width:1;stroke-linecap:round"></path><path d="M859.039955057133,15.83967441212756L859.039955057133,38.86364157217054L864.5884460405603,13.782340659608314z" style="fill:rgb(238,238,238); fill-opacity: 0.4"></path><path d="M839.7078555344622,15.249200637545197L859.0399550571332,15.83967441212756" style="fill:none;stroke:rgb(0,0,0);stroke-width:1;stroke-linecap:round"></path><path d="M839.707855534462,15.249200637545199L839.707855534462,38.27316779758818L859.039955057133,15.83967441212756zM839.707855534462,38.27316779758818L859.039955057133,38.86364157217054L859.039955057133,15.83967441212756z" style="fill:rgb(238,238,238); fill-opacity: 0.4"></path><path d="M859.0399550571332,15.83967441212756L859.0399550571332,38.86364157217054" style="fill:none;stroke:rgb(0,0,0);stroke-width:1;stroke-linecap:round"></path></svg>