<svg viewBox="-1376 -658.5 2752 1317" width="2752" height="1317" style="background-color: rgb(255, 255, 255);" xmlns="http://www.w3.org/2000/svg"><path d="M-243.0752586597193,170.71429773661052L-256.91677881825,170.29152655004688M-256.91677881825,-230.62804422715863L-256.91677881825,170.29152655004688M-256.91677881825,170.29152655004688L-368.15081171680544,211.53616964211903M-243.0752586597193,-230.20527304059496L-243.0752586597193,170.71429773661052M-243.0752586597193,170.71429773661052L-354.3092915582747,211.95894082868267" style="fill:none;stroke:rgb(0,0,0);stroke-width:1;stroke-linecap:round"></path><path d="M-243.07525865971925,170.71429773661052L-256.91677881825,170.2915265500469L-256.91677881825,-230.62804422715857zM-243.07525865971925,-230.20527304059496L-243.07525865971925,170.71429773661052L-256.91677881825,-230.62804422715857z" style="fill:rgb(238,238,238); fill-opacity: 0.4"></path><path d="M-243.0752586597193,-230.20527304059496L-256.91677881825,-230.62804422715863M-256.91677881825,-230.62804422715863L-368.15081171680544,-189.38340113508644M-243.0752586597193,-230.20527304059496L-354.3092915582747,-188.9606299485228M59.58966052091394,192.6829969753864L30.80702842417632,191.80386900500508M30.80702842417632,-237.75281397057228L30.80702842417632,191.80386900500508M30.80702842417632,191.80386900500508L-88.37229253856167,235.99455803222526M59.58966052091394,-236.87368600019096L59.58966052091394,192.6829969753864M59.58966052091394,192.6829969753864L-59.589660441824044,236.87368600260658M-256.19567029961195,-156.4251983786381L-270.0371904581427,-156.8479695652017M-270.0371904581427,-171.16652566438762L-270.0371904581427,-156.8479695652017M-270.0371904581427,-156.8479695652017L-274.00983449023397,-155.3749465976277M-256.19567029961195,-170.743754477824L-270.0371904581427,-171.16652566438762M-270.0371904581427,-171.16652566438762L-274.00983449023397,-169.69350269681362" style="fill:none;stroke:rgb(0,0,0);stroke-width:1;stroke-linecap:round"></path><path d="M-256.19567029961195,-156.4251983786381L-270.0371904581427,-156.8479695652017L-270.0371904581427,-171.1665256643876z" style="fill:rgb(153,221,255); fill-opacity: 0.4"></path><path d="M59.58966052091393,192.68299697538646L30.807028424176323,191.80386900500508L30.807028424176323,-237.75281397057228z" style="fill:rgb(238,238,238); fill-opacity: 0.4"></path><path d="M-256.19567029961195,-170.74375447782398L-256.19567029961195,-156.4251983786381L-270.0371904581427,-171.1665256643876z" style="fill:rgb(153,221,255); fill-opacity: 0.4"></path><path d="M-256.19567029961195,-170.743754477824L-256.19567029961195,-156.4251983786381M-256.19567029961195,-156.4251983786381L-260.16831433170324,-154.95217541106408M-256.19567029961195,-170.743754477824L-260.16831433170324,-169.27073151025002" style="fill:none;stroke:rgb(0,0,0);stroke-width:1;stroke-linecap:round"></path><path d="M-270.0371904581427,-171.1665256643876L-270.0371904581427,-156.8479695652017L-274.00983449023397,-169.6935026968136zM-274.00983449023397,-155.3749465976277L-270.0371904581427,-156.8479695652017L-256.19567029961195,-156.4251983786381zM-260.16831433170324,-169.27073151025L-256.19567029961195,-170.74375447782398L-270.0371904581427,-171.1665256643876zM-260.16831433170324,-154.95217541106408L-256.19567029961195,-156.4251983786381L-256.19567029961195,-170.74375447782398z" style="fill:rgb(153,221,255); fill-opacity: 0.4"></path><path d="M-265.10275239492296,-163.05935053772586L-265.10275239492296,-163.05935053772586L-265.10275239492296,-163.05935053772586zM-265.10275239492296,-163.05935053772586L-265.10275239492296,-163.05935053772586L-265.10275239492296,-163.05935053772586z" style="fill:rgb(255,187,187); fill-opacity: 0.4"></path><path d="M-270.0371904581427,-156.8479695652017L-274.00983449023397,-155.3749465976277L-274.00983449023397,-169.6935026968136zM-260.16831433170324,-154.95217541106408L-274.00983449023397,-155.3749465976277L-256.19567029961195,-156.4251983786381zM-274.00983449023397,-169.6935026968136L-260.16831433170324,-169.27073151025L-270.0371904581427,-171.1665256643876z" style="fill:rgb(153,221,255); fill-opacity: 0.4"></path><path d="M-274.00983449023397,-169.69350269681362L-274.00983449023397,-155.3749465976277M-274.00983449023397,-155.3749465976277L-260.16831433170324,-154.95217541106408" style="fill:none;stroke:rgb(0,0,0);stroke-width:1;stroke-linecap:round"></path><path d="M-260.16831433170324,-169.27073151025L-260.16831433170324,-154.95217541106408L-256.19567029961195,-170.74375447782398z" style="fill:rgb(153,221,255); fill-opacity: 0.4"></path><path d="M-274.00983449023397,-169.69350269681362L-260.16831433170324,-169.27073151025002" style="fill:none;stroke:rgb(0,0,0);stroke-width:1;stroke-linecap:round"></path><path d="M-274.00983449023397,-169.6935026968136L-274.00983449023397,-155.3749465976277L-260.16831433170324,-169.27073151025zM-274.00983449023397,-155.3749465976277L-260.16831433170324,-154.95217541106408L-260.16831433170324,-169.27073151025z" style="fill:rgb(153,221,255); fill-opacity: 0.4"></path><path d="M-260.16831433170324,-169.27073151025002L-260.16831433170324,-154.95217541106408" style="fill:none;stroke:rgb(0,0,0);stroke-width:1;stroke-linecap:round"></path><path d="M59.58966052091393,-236.8736860001909L59.58966052091393,192.68299697538646L30.807028424176323,-237.75281397057228z" style="fill:rgb(238,238,238); fill-opacity: 0.4"></path><path d="M59.58966052091394,-236.87368600019096L30.80702842417632,-237.75281397057228M30.80702842417632,-237.75281397057228L-88.37229253856167,-193.5621249433521" style="fill:none;stroke:rgb(0,0,0);stroke-width:1;stroke-linecap:round"></path><path d="M-265.10275239492296,-163.05935053772586L-265.10275239492296,-163.05935053772586L14.621242403787358,-165.58426958063126zM-265.10275239492296,-163.05935053772586L-265.10275239492296,-163.05935053772586L14.621242403787358,-165.58426958063126zM-265.10275239492296,-163.05935053772586L-265.10275239492296,-163.05935053772586L14.621242403787358,-165.58426958063126zM-265.10275239492296,-163.05935053772586L-265.10275239492296,-163.05935053772586L14.621242403787358,-165.58426958063126z" style="fill:rgb(255,187,187); fill-opacity: 0.4"></path><path d="M59.58966052091394,-236.87368600019096L-59.589660441824044,-192.68299697297078" style="fill:none;stroke:rgb(0,0,0);stroke-width:1;stroke-linecap:round"></path><path d="M-368.15081171680544,211.53616964211906L-256.91677881825,170.2915265500469L-243.07525865971925,170.71429773661052zM-354.3092915582747,211.95894082868267L-243.07525865971925,170.71429773661052L-243.07525865971925,-230.20527304059496zM-256.91677881825,-230.62804422715857L-256.91677881825,170.2915265500469L-368.15081171680544,-189.38340113508642z" style="fill:rgb(238,238,238); fill-opacity: 0.4"></path><path d="M361.23005167708493,189.17201554301246L332.44741958034734,188.29288757263114M332.44741958034734,-212.62668320457436L332.44741958034734,188.29288757263114M332.44741958034734,188.29288757263114L221.21338668179192,229.5375306647033" style="fill:none;stroke:rgb(0,0,0);stroke-width:1;stroke-linecap:round"></path><path d="M-354.3092915582747,-188.9606299485228L-243.07525865971925,-230.20527304059496L-256.91677881825,-230.62804422715857z" style="fill:rgb(238,238,238); fill-opacity: 0.4"></path><path d="M361.23005167708493,-211.74755523419304L361.23005167708493,189.17201554301246M361.23005167708493,189.17201554301246L249.99601877852953,230.41665863508462" style="fill:none;stroke:rgb(0,0,0);stroke-width:1;stroke-linecap:round"></path><path d="M361.23005167708493,189.17201554301246L332.44741958034734,188.29288757263114L332.44741958034734,-212.62668320457436zM361.23005167708493,-211.74755523419304L361.23005167708493,189.17201554301246L332.44741958034734,-212.62668320457436zM-88.37229253856167,235.99455803222526L30.807028424176323,191.80386900500508L59.58966052091393,192.68299697538646z" style="fill:rgb(238,238,238); fill-opacity: 0.4"></path><path d="M22.952939004100998,53.84772915466719L-5.829693092636608,52.96860118428583M-5.829693092636608,10.012932886728105L-5.829693092636608,52.96860118428583M-5.829693092636608,52.96860118428583L-17.74762518891041,57.38767008700785M361.23005167708493,-211.74755523419304L332.44741958034734,-212.62668320457436M332.44741958034734,-212.62668320457436L221.21338668179192,-171.3820401125022" style="fill:none;stroke:rgb(0,0,0);stroke-width:1;stroke-linecap:round"></path><path d="M22.952939004100998,53.8477291546672L-5.829693092636605,52.968601184285845L-5.829693092636605,10.012932886728105z" style="fill:rgb(153,221,255); fill-opacity: 0.4"></path><path d="M22.952939004100998,10.892060857109463L-5.829693092636608,10.012932886728105M-5.829693092636608,10.012932886728105L-17.74762518891041,14.432001789450121M22.952939004100998,10.892060857109463L22.952939004100998,53.84772915466719M22.952939004100998,53.84772915466719L11.035006907827203,58.26679805738921M22.95293843412015,10.892061771871886L22.95293843412015,53.84773006942962M22.95293843412015,53.84773006942962L11.035007284998494,58.2667986209556M22.95293843412015,53.84773006942962L292.69144425362947,40.72955799214877" style="fill:none;stroke:rgb(0,0,0);stroke-width:1;stroke-linecap:round"></path><path d="M22.952939004100998,10.89206085710946L22.952939004100998,53.8477291546672L-5.829693092636605,10.012932886728105z" style="fill:rgb(153,221,255); fill-opacity: 0.4"></path><path d="M361.23005167708493,-211.74755523419304L249.99601877852953,-170.50291214212086M22.952939004100998,10.892060857109463L11.035006907827203,15.311129759831479M22.95293843412015,10.892061771871886L11.035007284998494,15.31113032339786M22.95293843412015,10.892061771871886L292.69144425362947,40.72955799214877" style="fill:none;stroke:rgb(0,0,0);stroke-width:1;stroke-linecap:round"></path><path d="M-17.747625188910405,57.38767008700786L-5.829693092636605,52.968601184285845L22.952939004100998,53.8477291546672zM-5.829693092636605,10.012932886728105L-5.829693092636605,52.968601184285845L-17.747625188910405,14.432001789450121z" style="fill:rgb(153,221,255); fill-opacity: 0.4"></path><path d="M-59.58966044182406,236.87368600260663L59.58966052091393,192.68299697538646L59.58966052091393,-236.8736860001909z" style="fill:rgb(238,238,238); fill-opacity: 0.4"></path><path d="M22.952938964556033,10.892060855901612L22.952938964556033,53.847729153459355L11.035006868282231,58.266798056181365z" style="fill:rgb(255,187,187); fill-opacity: 0.4"></path><path d="M11.0350069078272,58.26679805738922L22.952939004100998,53.8477291546672L22.952939004100998,10.89206085710946zM11.0350069078272,15.311129759831475L22.952939004100998,10.89206085710946L-5.829693092636605,10.012932886728105z" style="fill:rgb(153,221,255); fill-opacity: 0.4"></path><path d="M30.807028424176323,-237.75281397057228L30.807028424176323,191.80386900500508L-88.37229253856167,-193.5621249433521z" style="fill:rgb(238,238,238); fill-opacity: 0.4"></path><path d="M-5.829693092636605,52.968601184285845L-17.747625188910405,57.38767008700786L-17.747625188910405,14.432001789450121zM11.0350069078272,58.26679805738922L-17.747625188910405,57.38767008700786L22.952939004100998,53.8477291546672zM-17.747625188910405,14.432001789450121L11.0350069078272,15.311129759831475L-5.829693092636605,10.012932886728105z" style="fill:rgb(153,221,255); fill-opacity: 0.4"></path><path d="M22.952938964556033,10.892060855901612L11.035006868282231,58.266798056181365L11.035006868282231,15.311129758623629z" style="fill:rgb(255,187,187); fill-opacity: 0.4"></path><path d="M11.0350069078272,15.311129759831475L11.0350069078272,58.26679805738922L22.952939004100998,10.89206085710946z" style="fill:rgb(153,221,255); fill-opacity: 0.4"></path><path d="M-17.74762518891041,14.432001789450121L-17.74762518891041,57.38767008700785M-17.74762518891041,57.38767008700785L11.035006907827203,58.26679805738921" style="fill:none;stroke:rgb(0,0,0);stroke-width:1;stroke-linecap:round"></path><path d="M22.952938964556033,53.847729153459355L22.952938964556033,10.892060855901612L292.6914445592725,40.72955789024436z" style="fill:rgb(255,187,187); fill-opacity: 0.4"></path><path d="M-59.58966044182406,-192.68299697297073L59.58966052091393,-236.8736860001909L30.807028424176323,-237.75281397057228z" style="fill:rgb(238,238,238); fill-opacity: 0.4"></path><path d="M-17.74762518891041,14.432001789450121L11.035006907827203,15.311129759831479" style="fill:none;stroke:rgb(0,0,0);stroke-width:1;stroke-linecap:round"></path><path d="M-17.747625188910405,14.432001789450121L-17.747625188910405,57.38767008700786L11.0350069078272,15.311129759831475zM-17.747625188910405,57.38767008700786L11.0350069078272,58.26679805738922L11.0350069078272,15.311129759831475z" style="fill:rgb(153,221,255); fill-opacity: 0.4"></path><path d="M11.035007284998494,58.2667986209556L11.035007284998494,15.31113032339786M11.035007284998494,58.2667986209556L292.69144425362947,40.72955799214877M11.035006907827203,15.311129759831479L11.035006907827203,58.26679805738921" style="fill:none;stroke:rgb(0,0,0);stroke-width:1;stroke-linecap:round"></path><path d="M-354.3092915582747,211.95894082868267L-368.15081171680544,211.53616964211906L-243.07525865971925,170.71429773661052z" style="fill:rgb(238,238,238); fill-opacity: 0.4"></path><path d="M11.035007284998494,15.31113032339786L292.69144425362947,40.72955799214877" style="fill:none;stroke:rgb(0,0,0);stroke-width:1;stroke-linecap:round"></path><path d="M11.035006868282231,58.266798056181365L22.952938964556033,53.847729153459355L292.6914445592725,40.72955789024436zM22.952938964556033,10.892060855901612L11.035006868282231,15.311129758623629L292.6914445592725,40.72955789024436z" style="fill:rgb(255,187,187); fill-opacity: 0.4"></path><path d="M-256.91677881825,170.2915265500469L-368.15081171680544,211.53616964211906L-368.15081171680544,-189.38340113508642z" style="fill:rgb(238,238,238); fill-opacity: 0.4"></path><path d="M11.035006868282231,15.311129758623629L11.035006868282231,58.266798056181365L292.6914445592725,40.72955789024436z" style="fill:rgb(255,187,187); fill-opacity: 0.4"></path><path d="M-354.3092915582747,-188.9606299485228L-354.3092915582747,211.95894082868267L-243.07525865971925,-230.20527304059496zM221.2133866817919,229.5375306647033L332.44741958034734,188.29288757263114L361.23005167708493,189.17201554301246zM-368.15081171680544,-189.38340113508642L-354.3092915582747,-188.9606299485228L-256.91677881825,-230.62804422715857zM249.99601877852953,230.41665863508462L361.23005167708493,189.17201554301246L361.23005167708493,-211.74755523419304zM332.44741958034734,-212.62668320457436L332.44741958034734,188.29288757263114L221.2133866817919,-171.3820401125022zM249.99601877852953,-170.50291214212086L361.23005167708493,-211.74755523419304L332.44741958034734,-212.62668320457436zM-59.58966044182406,236.87368600260663L-88.37229253856167,235.99455803222526L59.58966052091393,192.68299697538646zM30.807028424176323,191.80386900500508L-88.37229253856167,235.99455803222526L-88.37229253856167,-193.5621249433521z" style="fill:rgb(238,238,238); fill-opacity: 0.4"></path><path d="M639.0345786407084,108.5878353209671L610.2519465439708,107.70870735058575M610.2519465439708,-92.751078038017L610.2519465439708,107.70870735058575M610.2519465439708,107.70870735058575L554.6349300946931,128.33102889662183M639.0345786407084,-91.87195006763564L639.0345786407084,108.5878353209671M639.0345786407084,108.5878353209671L583.4175621914308,129.21015686700318" style="fill:none;stroke:rgb(0,0,0);stroke-width:1;stroke-linecap:round"></path><path d="M639.0345786407084,108.58783532096709L610.2519465439708,107.70870735058574L610.2519465439708,-92.75107803801701zM-59.58966044182406,-192.68299697297073L-59.58966044182406,236.87368600260663L59.58966052091393,-236.8736860001909zM639.0345786407084,-91.87195006763565L639.0345786407084,108.58783532096709L610.2519465439708,-92.75107803801701z" style="fill:rgb(238,238,238); fill-opacity: 0.4"></path><path d="M639.0345786407084,-91.87195006763564L610.2519465439708,-92.751078038017M610.2519465439708,-92.751078038017L554.6349300946931,-72.12875649198091M-368.15081171680544,-189.38340113508644L-368.15081171680544,211.53616964211903M-368.15081171680544,211.53616964211903L-354.3092915582747,211.95894082868267M-354.3092915582747,-188.9606299485228L-354.3092915582747,211.95894082868267" style="fill:none;stroke:rgb(0,0,0);stroke-width:1;stroke-linecap:round"></path><path d="M-88.37229253856167,-193.5621249433521L-59.58966044182406,-192.68299697297073L30.807028424176323,-237.75281397057228z" style="fill:rgb(238,238,238); fill-opacity: 0.4"></path><path d="M639.0345786407084,-91.87195006763564L583.4175621914308,-71.24962852159956" style="fill:none;stroke:rgb(0,0,0);stroke-width:1;stroke-linecap:round"></path><path d="M-368.15081171680544,211.53616964211906L-354.3092915582747,211.95894082868267L-354.3092915582747,-188.9606299485228zM-368.15081171680544,-189.38340113508642L-368.15081171680544,211.53616964211906L-354.3092915582747,-188.9606299485228z" style="fill:rgb(238,238,238); fill-opacity: 0.4"></path><path d="M-368.15081171680544,-189.38340113508644L-354.3092915582747,-188.9606299485228" style="fill:none;stroke:rgb(0,0,0);stroke-width:1;stroke-linecap:round"></path><path d="M554.634930094693,128.3310288966218L610.2519465439708,107.70870735058574L639.0345786407084,108.58783532096709zM249.99601877852953,230.41665863508462L221.2133866817919,229.5375306647033L361.23005167708493,189.17201554301246zM332.44741958034734,188.29288757263114L221.2133866817919,229.5375306647033L221.2133866817919,-171.3820401125022zM610.2519465439708,-92.75107803801701L610.2519465439708,107.70870735058574L554.634930094693,-72.12875649198091zM583.4175621914306,129.21015686700318L639.0345786407084,108.58783532096709L639.0345786407084,-91.87195006763565zM583.4175621914306,-71.24962852159956L639.0345786407084,-91.87195006763565L610.2519465439708,-92.75107803801701zM249.99601877852953,-170.50291214212086L249.99601877852953,230.41665863508462L361.23005167708493,-211.74755523419304z" style="fill:rgb(238,238,238); fill-opacity: 0.4"></path><path d="M278.42490197846826,134.44816553152933L249.64226988173064,133.56903756114795M249.64226988173064,104.93192536277613L249.64226988173064,133.56903756114795M249.64226988173064,133.56903756114795L241.6969818175481,136.51508349629597M278.42490197846826,105.81105333315749L249.64226988173064,104.93192536277613M249.64226988173064,104.93192536277613L241.6969818175481,107.87797129792415" style="fill:none;stroke:rgb(0,0,0);stroke-width:1;stroke-linecap:round"></path><path d="M278.42490197846826,134.44816553152933L249.6422698817306,133.56903756114798L249.6422698817306,104.93192536277614z" style="fill:rgb(153,221,255); fill-opacity: 0.4"></path><path d="M221.2133866817919,-171.3820401125022L249.99601877852953,-170.50291214212086L332.44741958034734,-212.62668320457436z" style="fill:rgb(238,238,238); fill-opacity: 0.4"></path><path d="M278.42490197846826,105.8110533331575L278.42490197846826,134.44816553152933L249.6422698817306,104.93192536277614z" style="fill:rgb(153,221,255); fill-opacity: 0.4"></path><path d="M278.4248956262827,105.81105623596245L278.4248956262827,134.4481684343343M278.4248956262827,134.4481684343343L270.4796056677959,137.39421507187438M278.4248956262827,134.4481684343343L566.863043301311,73.9240171326638M278.42490197846826,105.81105333315749L278.42490197846826,134.44816553152933M278.42490197846826,134.44816553152933L270.4796139142857,137.39421146667732" style="fill:none;stroke:rgb(0,0,0);stroke-width:1;stroke-linecap:round"></path><path d="M249.6422698817306,104.93192536277614L249.6422698817306,133.56903756114798L241.69698181754808,107.87797129792415z" style="fill:rgb(153,221,255); fill-opacity: 0.4"></path><path d="M278.4248956262827,105.81105623596245L270.4796056677959,108.75710287350256M278.4248956262827,105.81105623596245L566.863043301311,73.9240171326638M278.42490197846826,105.81105333315749L270.4796139142857,108.7570992683055" style="fill:none;stroke:rgb(0,0,0);stroke-width:1;stroke-linecap:round"></path><path d="M241.69698181754808,136.51508349629597L249.6422698817306,133.56903756114798L278.42490197846826,134.44816553152933z" style="fill:rgb(153,221,255); fill-opacity: 0.4"></path><path d="M-88.37229253856167,-193.5621249433521L-88.37229253856167,235.99455803222526M-88.37229253856167,235.99455803222526L-59.589660441824044,236.87368600260658" style="fill:none;stroke:rgb(0,0,0);stroke-width:1;stroke-linecap:round"></path><path d="M270.4796139142857,108.7570992683055L278.42490197846826,105.8110533331575L249.6422698817306,104.93192536277614z" style="fill:rgb(153,221,255); fill-opacity: 0.4"></path><path d="M278.4249019389233,105.81105333194965L278.4249019389233,134.4481655303215L270.4796138747407,137.39421146546948z" style="fill:rgb(255,187,187); fill-opacity: 0.4"></path><path d="M270.4796139142857,137.39421146667732L278.42490197846826,134.44816553152933L278.42490197846826,105.8110533331575zM249.6422698817306,133.56903756114798L241.69698181754808,136.51508349629597L241.69698181754808,107.87797129792415z" style="fill:rgb(153,221,255); fill-opacity: 0.4"></path><path d="M638.9091106935862,19.514645771603156L795.7796724902677,24.306052552657494M-59.589660441824044,-192.68299697297078L-59.589660441824044,236.87368600260658" style="fill:none;stroke:rgb(0,0,0);stroke-width:1;stroke-linecap:round"></path><path d="M270.4796139142857,137.39421146667732L241.69698181754808,136.51508349629597L278.42490197846826,134.44816553152933zM241.69698181754808,107.87797129792415L270.4796139142857,108.7570992683055L249.6422698817306,104.93192536277614z" style="fill:rgb(153,221,255); fill-opacity: 0.4"></path><path d="M278.4249019389233,134.4481655303215L278.4249019389233,105.81105333194965L566.8630497181617,73.92401578024607z" style="fill:rgb(255,187,187); fill-opacity: 0.4"></path><path d="M241.6969818175481,107.87797129792415L241.6969818175481,136.51508349629597M241.6969818175481,136.51508349629597L270.4796139142857,137.39421146667732" style="fill:none;stroke:rgb(0,0,0);stroke-width:1;stroke-linecap:round"></path><path d="M278.4249019389233,105.81105333194965L270.4796138747407,137.39421146546948L270.4796138747407,108.75709926709764z" style="fill:rgb(255,187,187); fill-opacity: 0.4"></path><path d="M270.4796139142857,108.7570992683055L270.4796139142857,137.39421146667732L278.42490197846826,105.8110533331575z" style="fill:rgb(153,221,255); fill-opacity: 0.4"></path><path d="M241.6969818175481,107.87797129792415L270.4796139142857,108.7570992683055" style="fill:none;stroke:rgb(0,0,0);stroke-width:1;stroke-linecap:round"></path><path d="M583.4175621914306,129.21015686700318L554.634930094693,128.3310288966218L639.0345786407084,108.58783532096709z" style="fill:rgb(238,238,238); fill-opacity: 0.4"></path><path d="M241.69698181754808,107.87797129792415L241.69698181754808,136.51508349629597L270.4796139142857,108.7570992683055z" style="fill:rgb(153,221,255); fill-opacity: 0.4"></path><path d="M270.4796138747407,137.39421146546948L278.4249019389233,134.4481655303215L566.8630497181617,73.92401578024607z" style="fill:rgb(255,187,187); fill-opacity: 0.4"></path><path d="M610.2519465439708,107.70870735058574L554.634930094693,128.3310288966218L554.634930094693,-72.12875649198091z" style="fill:rgb(238,238,238); fill-opacity: 0.4"></path><path d="M241.69698181754808,136.51508349629597L270.4796139142857,137.39421146667732L270.4796139142857,108.7570992683055z" style="fill:rgb(153,221,255); fill-opacity: 0.4"></path><path d="M278.4249019389233,105.81105333194965L270.4796138747407,108.75709926709764L566.8630497181617,73.92401578024607z" style="fill:rgb(255,187,187); fill-opacity: 0.4"></path><path d="M-88.37229253856167,235.99455803222526L-59.58966044182406,236.87368600260663L-59.58966044182406,-192.68299697297073z" style="fill:rgb(238,238,238); fill-opacity: 0.4"></path><path d="M270.4796139142857,108.7570992683055L270.4796139142857,137.39421146667732M270.4796056677959,137.39421507187438L270.4796056677959,108.75710287350256M270.4796056677959,137.39421507187438L566.863043301311,73.9240171326638M270.4796056677959,108.75710287350256L566.863043301311,73.9240171326638" style="fill:none;stroke:rgb(0,0,0);stroke-width:1;stroke-linecap:round"></path><path d="M270.4796138747407,108.75709926709764L270.4796138747407,137.39421146546948L566.8630497181617,73.92401578024607z" style="fill:rgb(255,187,187); fill-opacity: 0.4"></path><path d="M-88.37229253856167,-193.5621249433521L-88.37229253856167,235.99455803222526L-59.58966044182406,-192.68299697297073zM583.4175621914306,-71.24962852159956L583.4175621914306,129.21015686700318L639.0345786407084,-91.87195006763565zM554.634930094693,-72.12875649198091L583.4175621914306,-71.24962852159956L610.2519465439708,-92.75107803801701z" style="fill:rgb(238,238,238); fill-opacity: 0.4"></path><path d="M-88.37229253856167,-193.5621249433521L-59.589660441824044,-192.68299697297078" style="fill:none;stroke:rgb(0,0,0);stroke-width:1;stroke-linecap:round"></path><path d="M801.6173263444686,-6.818388700014875L789.9420186360668,-2.489282878037529L888.0564735471394,27.124527129748287z" style="fill:rgb(0,0,0)"></path><path d="M933.5536780548226,79.5946093475112L905.8706377377613,78.74906697438396M905.8706377377613,-26.600516276908294L905.8706377377613,78.74906697438396M905.8706377377613,78.74906697438396L897.9253496735788,81.69511290953199" style="fill:none;stroke:rgb(0,0,0);stroke-width:1;stroke-linecap:round"></path><path d="M933.5536780548227,79.5946093475112L905.8706377377614,78.74906697438396L905.8706377377614,-26.600516276908298z" style="fill:rgb(238,238,238); fill-opacity: 0.4"></path><path d="M786.3341497706141,38.870066087607974L795.7796724902677,60.10244280062228L888.0564735471394,27.124527129748287z" style="fill:rgb(0,0,0)"></path><path d="M933.5536780548226,-25.754973903781067L933.5536780548226,79.5946093475112M933.5536780548226,79.5946093475112L925.6083899906401,82.54065528265922M933.5536780548226,-25.754973903781067L905.8706377377613,-26.600516276908294M905.8706377377613,-26.600516276908294L897.9253496735788,-23.654470341760277" style="fill:none;stroke:rgb(0,0,0);stroke-width:1;stroke-linecap:round"></path><path d="M897.9253496735788,81.69511290953197L905.8706377377614,78.74906697438396L933.5536780548227,79.5946093475112z" style="fill:rgb(238,238,238); fill-opacity: 0.4"></path><path d="M221.21338668179192,-171.3820401125022L221.21338668179192,229.5375306647033M221.21338668179192,229.5375306647033L249.99601877852953,230.41665863508462" style="fill:none;stroke:rgb(0,0,0);stroke-width:1;stroke-linecap:round"></path><path d="M933.5536780548227,-25.754973903781067L933.5536780548227,79.5946093475112L905.8706377377614,-26.600516276908298z" style="fill:rgb(238,238,238); fill-opacity: 0.4"></path><path d="M554.6349300946931,-72.12875649198091L554.6349300946931,128.33102889662183M554.6349300946931,128.33102889662183L583.4175621914308,129.21015686700318" style="fill:none;stroke:rgb(0,0,0);stroke-width:1;stroke-linecap:round"></path><path d="M789.9420186360668,-2.489282878037529L786.3341497706141,38.870066087607974L888.0564735471394,27.124527129748287z" style="fill:rgb(0,0,0)"></path><path d="M905.8706377377614,-26.600516276908298L905.8706377377614,78.74906697438396L897.9253496735788,-23.65447034176028z" style="fill:rgb(238,238,238); fill-opacity: 0.4"></path><path d="M933.5536780548226,-25.754973903781067L925.6083899906401,-22.80892796863305M249.99601877852953,-170.50291214212086L249.99601877852953,230.41665863508462" style="fill:none;stroke:rgb(0,0,0);stroke-width:1;stroke-linecap:round"></path><path d="M925.6083899906401,82.54065528265922L933.5536780548227,79.5946093475112L933.5536780548227,-25.754973903781067z" style="fill:rgb(238,238,238); fill-opacity: 0.4"></path><path d="M583.4175621914308,-71.24962852159956L583.4175621914308,129.21015686700318" style="fill:none;stroke:rgb(0,0,0);stroke-width:1;stroke-linecap:round"></path><path d="M905.8706377377614,78.74906697438396L897.9253496735788,81.69511290953197L897.9253496735788,-23.65447034176028zM925.6083899906401,82.54065528265922L897.9253496735788,81.69511290953197L933.5536780548227,79.5946093475112zM925.6083899906401,-22.80892796863305L933.5536780548227,-25.754973903781067L905.8706377377614,-26.600516276908298zM554.634930094693,128.3310288966218L583.4175621914306,129.21015686700318L583.4175621914306,-71.24962852159956z" style="fill:rgb(238,238,238); fill-opacity: 0.4"></path><path d="M897.9253496735788,-23.654470341760277L897.9253496735788,81.69511290953199M897.9253496735788,81.69511290953199L925.6083899906401,82.54065528265922" style="fill:none;stroke:rgb(0,0,0);stroke-width:1;stroke-linecap:round"></path><path d="M554.634930094693,-72.12875649198091L554.634930094693,128.3310288966218L583.4175621914306,-71.24962852159956z" style="fill:rgb(238,238,238); fill-opacity: 0.4"></path><path d="M943.4225541812622,28.815611876002688L1100.293115977944,33.607018657057026" style="fill:none;stroke:rgb(0,0,0);stroke-width:1;stroke-linecap:round"></path><path d="M221.2133866817919,229.5375306647033L249.99601877852953,230.41665863508462L249.99601877852953,-170.50291214212086zM897.9253496735788,-23.65447034176028L925.6083899906401,-22.80892796863305L905.8706377377614,-26.600516276908298zM925.6083899906401,-22.80892796863305L925.6083899906401,82.54065528265922L933.5536780548227,-25.754973903781067z" style="fill:rgb(238,238,238); fill-opacity: 0.4"></path><path d="M554.6349300946931,-72.12875649198091L583.4175621914308,-71.24962852159956M925.6083899906401,-22.80892796863305L925.6083899906401,82.54065528265922" style="fill:none;stroke:rgb(0,0,0);stroke-width:1;stroke-linecap:round"></path><path d="M897.9253496735788,81.69511290953197L925.6083899906401,82.54065528265922L925.6083899906401,-22.80892796863305zM897.9253496735788,-23.65447034176028L897.9253496735788,81.69511290953197L925.6083899906401,-22.80892796863305z" style="fill:rgb(238,238,238); fill-opacity: 0.4"></path><path d="M897.9253496735788,-23.654470341760277L925.6083899906401,-22.80892796863305" style="fill:none;stroke:rgb(0,0,0);stroke-width:1;stroke-linecap:round"></path><path d="M221.2133866817919,-171.3820401125022L221.2133866817919,229.5375306647033L249.99601877852953,-170.50291214212086z" style="fill:rgb(238,238,238); fill-opacity: 0.4"></path><path d="M221.21338668179192,-171.3820401125022L249.99601877852953,-170.50291214212086" style="fill:none;stroke:rgb(0,0,0);stroke-width:1;stroke-linecap:round"></path><path d="M1106.1307698321448,2.4825774043846573L1094.4554621237428,6.811683226362004L1192.5699170348155,36.425493234147815z" style="fill:rgb(0,0,0)"></path><path d="M1238.0671215424989,52.70563096877787L1210.3840812254375,51.86008859565064M1210.3840812254375,18.8903943106241L1210.3840812254375,51.86008859565064M1210.3840812254375,51.86008859565064L1202.438793161255,54.80613453079865" style="fill:none;stroke:rgb(0,0,0);stroke-width:1;stroke-linecap:round"></path><path d="M1090.84759325829,48.17103219200751L1100.293115977944,69.4034089050218L1192.5699170348155,36.425493234147815z" style="fill:rgb(0,0,0)"></path><path d="M1238.0671215424989,19.73593668375133L1210.3840812254375,18.8903943106241M1210.3840812254375,18.8903943106241L1202.438793161255,21.83644024577211" style="fill:none;stroke:rgb(0,0,0);stroke-width:1;stroke-linecap:round"></path><path d="M1238.0671215424989,52.70563096877787L1210.3840812254375,51.86008859565064L1210.3840812254375,18.8903943106241zM1238.0671215424989,19.73593668375133L1238.0671215424989,52.70563096877787L1210.3840812254375,18.8903943106241z" style="fill:rgb(238,238,238); fill-opacity: 0.4"></path><path d="M1238.0671215424989,19.73593668375133L1238.0671215424989,52.70563096877787M1238.0671215424989,52.70563096877787L1230.1218334783164,55.651676903925875M1238.0671215424989,19.73593668375133L1230.1218334783164,22.681982618899344" style="fill:none;stroke:rgb(0,0,0);stroke-width:1;stroke-linecap:round"></path><path d="M1210.3840812254375,18.8903943106241L1210.3840812254375,51.86008859565064L1202.4387931612548,21.83644024577211zM1202.4387931612548,54.80613453079865L1210.3840812254375,51.86008859565064L1238.0671215424989,52.70563096877787z" style="fill:rgb(238,238,238); fill-opacity: 0.4"></path><path d="M1094.4554621237428,6.811683226362004L1090.84759325829,48.17103219200751L1192.5699170348155,36.425493234147815z" style="fill:rgb(0,0,0)"></path><path d="M1230.1218334783161,22.68198261889934L1238.0671215424989,19.73593668375133L1210.3840812254375,18.8903943106241zM1230.1218334783161,55.651676903925875L1238.0671215424989,52.70563096877787L1238.0671215424989,19.73593668375133zM1210.3840812254375,51.86008859565064L1202.4387931612548,54.80613453079865L1202.4387931612548,21.83644024577211zM1230.1218334783161,55.651676903925875L1202.4387931612548,54.80613453079865L1238.0671215424989,52.70563096877787zM1202.4387931612548,21.83644024577211L1230.1218334783161,22.68198261889934L1210.3840812254375,18.8903943106241z" style="fill:rgb(238,238,238); fill-opacity: 0.4"></path><path d="M1202.438793161255,21.83644024577211L1202.438793161255,54.80613453079865M1202.438793161255,54.80613453079865L1230.1218334783164,55.651676903925875" style="fill:none;stroke:rgb(0,0,0);stroke-width:1;stroke-linecap:round"></path><path d="M1230.1218334783161,22.68198261889934L1230.1218334783161,55.651676903925875L1238.0671215424989,19.73593668375133z" style="fill:rgb(238,238,238); fill-opacity: 0.4"></path><path d="M1202.438793161255,21.83644024577211L1230.1218334783164,22.681982618899344" style="fill:none;stroke:rgb(0,0,0);stroke-width:1;stroke-linecap:round"></path><path d="M1202.4387931612548,21.83644024577211L1202.4387931612548,54.80613453079865L1230.1218334783161,22.68198261889934zM1202.4387931612548,54.80613453079865L1230.1218334783161,55.651676903925875L1230.1218334783161,22.68198261889934z" style="fill:rgb(238,238,238); fill-opacity: 0.4"></path><path d="M1230.1218334783164,22.681982618899344L1230.1218334783164,55.651676903925875" style="fill:none;stroke:rgb(0,0,0);stroke-width:1;stroke-linecap:round"></path></svg>